HIERARCHY
ROOT Hips
{
  OFFSET 0 0 0
  CHANNELS 6 Xposition Yposition Zposition Zrotation Yrotation Xrotation
  JOINT LeftThigh
  {
    OFFSET 8.409438 0 -5.917753
    CHANNELS 3 Zrotation Yrotation Xrotation
    JOINT LeftLeg
    {
      OFFSET 0 0 -42.358652
      CHANNELS 3 Zrotation Yrotation Xrotation
      JOINT LeftFoot
      {
        OFFSET 0 0 -39.357303
        CHANNELS 3 Zrotation Yrotation Xrotation
      }
    }
  }
  JOINT RightThigh
  {
    OFFSET -8.409438 0 -5.917753
    CHANNELS 3 Zrotation Yrotation Xrotation
    JOINT RightLeg
    {
      OFFSET 0 0 -42.358652
      CHANNELS 3 Zrotation Yrotation Xrotation
      JOINT RightFoot
      {
        OFFSET 0 0 -39.357303
        CHANNELS 3 Zrotation Yrotation Xrotation
      }
    }
  }
  JOINT SpineLow
  {
    OFFSET 0 0 4.719101
    CHANNELS 3 Zrotation Yrotation Xrotation
    JOINT SpineMid
    {
      OFFSET 0 0 12.899191
      CHANNELS 3 Zrotation Yrotation Xrotation
      JOINT Chest
      {
        OFFSET 0 0 12.899191
        CHANNELS 3 Zrotation Yrotation Xrotation
        JOINT LeftShoulder
        {
          OFFSET 7.550562 1.41573 9.438202
          CHANNELS 3 Zrotation Yrotation Xrotation
          JOINT LeftArm
          {
            OFFSET 9.155056 0 4.247191
            CHANNELS 3 Zrotation Yrotation Xrotation
            JOINT LeftForearm
            {
              OFFSET 0 0 25.771955
              CHANNELS 3 Zrotation Yrotation Xrotation
              JOINT LeftHand
              {
                OFFSET 0 0 25.197169
                CHANNELS 3 Zrotation Yrotation Xrotation
              }
            }
          }
        }
        JOINT RightShoulder
        {
          OFFSET -7.550562 1.41573 9.438202
          CHANNELS 3 Zrotation Yrotation Xrotation
          JOINT RightArm
          {
            OFFSET -9.155056 0 4.247191
            CHANNELS 3 Zrotation Yrotation Xrotation
            JOINT RightForearm
            {
              OFFSET 0 0 -25.771955
              CHANNELS 3 Zrotation Yrotation Xrotation
              JOINT RightHand
              {
                OFFSET 0 0 -25.197169
                CHANNELS 3 Zrotation Yrotation Xrotation
              }
            }
          }
        }
        JOINT Neck
        {
          OFFSET 0 0 15.101124
          CHANNELS 3 Zrotation Yrotation Xrotation
          JOINT Head
          {
            OFFSET 0 0 11.325843
            CHANNELS 3 Zrotation Yrotation Xrotation
            End Site
            {
              OFFSET 0 0 14.157303
            }
          }
        }
      }
    }
  }
}
MOTION
Frames: 8
Frame Time: 0.0
0.0  93.25843  0.0  -0.106773  -24.032865  -90.153228  13.464927  -11.780393  2.432008  3.899904  -2.507449  8.873571  12.187488  2.455559  4.112273  -2.91126  3.9039  -10.304759  -1.230654  4.564022  4.928141  5.594493  1.250064  0.50131  2.291478  -1.681789  -0.226634  6.2885  -4.5707  -0.779452  6.2885  -4.5707  -0.779452  -28.775339  30.051594  -17.344699  129.644774  55.646115  -151.233663  -20.597421  12.742206  103.527463  80.173382  -13.486391  -1.463091  -0.696198  -2.422357  25.26439  63.037989  49.508229  2.02749  -1.652742  -18.593216  -119.101548  50.825635  8.879733  -20.332163  -5.083772  10.395805  9.603631  -3.96842  7.720127  7.270696  
0.0  93.25843  0.0  -0.030158  -24.991964  -90.250587  13.26958  -11.73029  2.513101  4.641235  -2.422732  9.268344  12.171684  2.469624  4.033775  -2.580338  3.775126  -10.472526  -0.562885  4.753468  5.25413  5.507486  1.225723  0.44509  2.349308  -1.679036  -0.204431  6.445217  -4.564568  -0.722459  6.445217  -4.564568  -0.722459  -28.695904  29.883542  -17.435995  130.094762  55.294656  -150.825634  -20.209386  12.320234  103.782081  80.152128  -13.323801  -1.142879  -0.865748  -2.402685  25.253425  63.219875  49.521898  1.982875  -1.630533  -18.688234  -119.17153  50.510464  8.402538  -20.008822  -4.850604  10.425053  9.636872  -3.794975  7.745421  7.291627  
0.0  93.25843  0.0  0.032381  -25.924161  -90.379585  13.366752  -11.736583  2.767099  5.028986  -2.287548  9.421475  12.232269  2.495052  4.017639  -2.17103  3.646126  -10.54043  -0.209833  4.974065  5.476642  5.517298  1.203248  0.424129  2.427796  -1.672929  -0.174348  6.657883  -4.549927  -0.644995  6.657883  -4.549927  -0.644996  -28.643166  29.754315  -17.476768  130.403647  54.98135  -150.443764  -19.882835  11.800626  103.688745  79.886518  -13.742935  -0.514519  -0.94311  -2.416733  25.356878  63.329492  49.514993  1.873594  -1.700923  -18.704247  -119.223586  50.400549  8.072943  -19.62997  -4.664603  10.473013  9.684895  -3.657354  7.783945  7.324491  
0.0  93.25843  0.0  0.057454  -26.903094  -90.568037  13.081964  -11.871996  2.881531  5.545805  -2.107435  9.68354  12.457388  2.497973  4.139719  -1.893611  3.447782  -10.583388  0.36813  5.216363  5.771563  5.527661  1.179351  0.399019  2.494223  -1.689203  -0.146256  6.838088  -4.59649  -0.574461  6.838088  -4.59649  -0.574461  -28.574589  29.736172  -17.509675  131.038098  54.667861  -149.839265  -19.613597  11.02152  103.409996  79.310194  -14.153828  0.229083  -1.164177  -2.343634  25.328607  63.322124  49.471436  1.662361  -1.445384  -18.860928  -119.373634  50.255402  7.715732  -19.319475  -4.38253  10.559002  9.795902  -3.449546  7.852116  7.402869  
0.0  93.25843  0.0  0.064864  -27.672878  -90.682327  13.014361  -12.042495  3.083689  5.993031  -1.864058  9.986781  12.522311  2.515748  4.117288  -1.697093  3.260458  -10.579207  0.723992  5.452427  5.953815  5.495203  1.167619  0.389997  2.563333  -1.703386  -0.130165  7.026412  -4.636183  -0.536797  7.026412  -4.636183  -0.536797  -28.631401  29.811047  -17.465769  131.45792  54.421691  -149.333806  -19.132801  10.087978  103.239788  78.712842  -14.926484  0.475943  -1.219462  -2.351398  25.493131  63.33327  49.424371  1.544428  -1.390704  -18.893648  -119.536274  50.09014  7.504899  -18.946039  -4.202701  10.671732  9.902211  -3.318587  7.938856  7.479544  
0.0  93.25843  0.0  -0.06618  -28.276557  -90.738268  11.922306  -12.413672  2.802231  6.179286  -1.603575  10.189236  13.299783  2.590357  4.709312  -1.876445  2.92913  -10.592623  1.04373  5.678895  6.096458  5.729775  1.178668  0.465752  2.601529  -1.748406  -0.123956  7.131353  -4.759356  -0.52741  7.131353  -4.759356  -0.52741  -28.301604  30.089932  -17.202857  131.610294  54.081344  -148.765265  -18.613137  8.765677  102.981495  77.930431  -15.843473  0.490932  -1.740102  -2.256263  25.292244  62.985697  49.438363  1.124058  -0.311795  -19.376257  -119.957925  49.83425  7.265328  -18.563066  -4.012912  10.81372  10.01736  -3.180839  8.047722  7.562642  
0.0  93.25843  0.0  -0.153954  -28.705849  -90.75267  11.591935  -12.739223  2.75309  6.555397  -1.250014  10.79725  13.31179  2.60577  4.685923  -2.148727  2.65757  -10.610098  1.601551  5.942106  6.308952  5.687944  1.138389  0.491  2.644208  -1.773582  -0.13708  7.249617  -4.826207  -0.569157  7.249617  -4.826207  -0.569157  -28.357227  30.318309  -16.936788  131.876396  53.62322  -148.186825  -17.94371  7.170856  102.810536  77.193518  -16.651307  0.197974  -1.804868  -2.325424  25.552791  62.994086  49.44428  1.022134  -0.033938  -19.594941  -120.367394  49.548713  7.020081  -18.100558  -3.886049  10.909427  10.166502  -3.090133  8.120711  7.672095  
0.0  93.25843  0.0  -0.389361  -28.731121  -90.629939  9.964891  -13.355867  2.024821  6.518935  -0.798242  11.349378  14.198414  2.679501  5.385163  -3.046969  2.222386  -10.751639  2.006327  6.170852  6.46587  5.855187  1.136701  0.570852  2.613775  -1.821731  -0.16768  7.169508  -4.954643  -0.655891  7.169508  -4.954644  -0.655891  -27.190062  31.071534  -16.519842  133.056998  52.809917  -148.186373  -16.28651  6.120931  103.669088  75.542152  -17.80393  0.218671  -1.967047  -2.354514  25.602508  63.222775  49.378656  1.034907  0.360316  -19.861499  -120.850149  49.257803  6.746667  -17.599548  -3.705195  11.010725  10.300086  -2.958905  8.198942  7.768877  
